<?xml version="1.0" encoding="utf-8"?>
<!-- Generator: Adobe Illustrator 16.0.0, SVG Export Plug-In . SVG Version: 6.00 Build 0)  -->
<!DOCTYPE svg PUBLIC "-//W3C//DTD SVG 1.1//EN" "http://www.w3.org/Graphics/SVG/1.1/DTD/svg11.dtd">
<svg version="1.1" id="Layer_1" xmlns="http://www.w3.org/2000/svg" xmlns:xlink="http://www.w3.org/1999/xlink" x="0px" y="0px"
	 width="17.199px" height="17.199px" viewBox="0 0 17.199 17.199" enable-background="new 0 0 17.199 17.199" xml:space="preserve">
<path fill="#FFFFFF" d="M16.339,7.74h-6.88V0.861C9.459,0.387,9.074,0,8.599,0C8.125,0,7.74,0.387,7.74,0.861V7.74H0.86
	C0.385,7.74,0,8.125,0,8.602c0,0.473,0.385,0.859,0.86,0.859h6.88v6.879c0,0.475,0.385,0.859,0.858,0.859
	c0.476,0,0.86-0.385,0.86-0.859V9.461h6.88c0.476,0,0.86-0.387,0.86-0.859C17.199,8.125,16.814,7.74,16.339,7.74z"/>
</svg>
