<?xml version="1.0" encoding="utf-8"?>
<!-- Generator: Adobe Illustrator 16.0.0, SVG Export Plug-In . SVG Version: 6.00 Build 0)  -->
<!DOCTYPE svg PUBLIC "-//W3C//DTD SVG 1.1//EN" "http://www.w3.org/Graphics/SVG/1.1/DTD/svg11.dtd">
<svg version="1.1" id="Layer_1" xmlns="http://www.w3.org/2000/svg" xmlns:xlink="http://www.w3.org/1999/xlink" x="0px" y="0px"
	 width="107.564px" height="96.529px" viewBox="0 0 107.564 96.529" enable-background="new 0 0 107.564 96.529"
	 xml:space="preserve">
<g opacity="0.7">
	<g>
		<path fill="#EAB14D" d="M53.782,18.35l19.104,19.096c0.676,0.676,1.594,1.056,2.551,1.056h26.307v49.235H5.82V38.502h26.307
			c0.957,0,1.874-0.38,2.551-1.056L53.782,18.35z"/>
	</g>
	<g>
		<path fill="#E7A52E" d="M75.438,38.502c-0.957,0-1.874-0.38-2.551-1.056L53.782,18.35L34.678,37.446
			c-0.677,0.676-1.594,1.056-2.551,1.056H5.82v4.669h26.315c2.21,0,4.289-0.861,5.853-2.424l14.293-14.293
			c0.829-0.829,2.173-0.829,3.002,0l14.293,14.293c1.563,1.563,3.642,2.424,5.852,2.424h19.525c1.172,0,2.122,0.95,2.122,2.123
			v42.444h4.669V38.502H75.438z"/>
	</g>
	<g>
		<path fill="#5E54AC" d="M51.231,10.697c1.408-1.409,3.692-1.409,5.102,0l20.59,20.59h24.821L91.736,4.342
			c-0.617-1.663-2.205-2.767-3.979-2.767H19.807c-1.774,0-3.361,1.104-3.979,2.767L5.82,31.287h24.82L51.231,10.697z"/>
	</g>
	<g>
		<path fill="#524798" d="M91.736,4.342c-0.617-1.663-2.205-2.767-3.979-2.767h-6.367c1.774,0,3.361,1.104,3.979,2.767
			l10.008,26.944h6.367L91.736,4.342z"/>
	</g>
	<g>
		<g>
			<path fill="#E7ECF6" d="M105.988,36.38c0,1.172-0.95,2.123-2.122,2.123H75.429c-0.957,0-1.874-0.38-2.552-1.057L53.782,18.35
				L34.687,37.445c-0.677,0.677-1.595,1.057-2.551,1.057H3.698c-1.173,0-2.123-0.951-2.123-2.123v-2.971
				c0-1.172,0.95-2.123,2.123-2.123h26.942l20.591-20.59c1.409-1.409,3.692-1.409,5.102,0l20.591,20.59h26.942
				c1.172,0,2.122,0.95,2.122,2.123V36.38L105.988,36.38z"/>
		</g>
	</g>
	<g>
		<path fill="#D8E2F1" d="M103.866,31.287H96.65c1.172,0,2.123,0.95,2.123,2.123v2.971c0,1.172-0.951,2.123-2.123,2.123h7.216
			c1.172,0,2.122-0.951,2.122-2.123v-2.971C105.988,32.237,105.038,31.287,103.866,31.287z"/>
	</g>
	<g>
		<path fill="#9DC6FB" d="M73.519,54.207H94.74v21.222H73.519V54.207z"/>
	</g>
	<g>
		<path fill="#AA8080" d="M73.519,75.429H94.74v6.791H73.519V75.429z"/>
	</g>
	<g>
		<path fill="#9DC6FB" d="M12.823,54.207h21.222v21.222H12.823V54.207z"/>
	</g>
	<g>
		<path fill="#AA8080" d="M12.823,75.429h21.222v6.791H12.823V75.429z"/>
	</g>
	<g>
		<path fill="#8B5E5E" d="M41.897,54.207h23.769v33.531H41.897V54.207z"/>
	</g>
	<g>
		<path fill="#9DC6FB" d="M48.688,60.998h10.187v6.792H48.688V60.998z"/>
	</g>
	<g>
		<circle fill="#9DC6FB" cx="53.782" cy="39.563" r="6.791"/>
	</g>
	<g>
		<path fill="#5E54AC" d="M1.576,87.737h104.412v7.216H1.576V87.737z"/>
	</g>
	<g>
		<path fill="#524798" d="M98.773,87.737h7.215v7.216h-7.215V87.737z"/>
	</g>
	<g>
		<path d="M103.866,29.711h-1.026L93.213,3.794C92.37,1.524,90.178,0,87.757,0h-67.95c-2.42,0-4.613,1.524-5.456,3.794L4.725,29.711
			H3.698C1.659,29.711,0,31.37,0,33.409v2.971c0,2.039,1.659,3.698,3.698,3.698h0.546v42.939c0,0.87,0.705,1.576,1.576,1.576
			c0.87,0,1.575-0.706,1.575-1.576V40.078h24.74c1.385,0,2.687-0.54,3.665-1.519l17.981-17.981L71.764,38.56
			c0.979,0.979,2.281,1.518,3.665,1.518h24.739v14.682c0,0.871,0.706,1.576,1.576,1.576c0.871,0,1.576-0.705,1.576-1.576V40.078
			h0.546c2.039,0,3.698-1.659,3.698-3.698v-2.971C107.564,31.37,105.905,29.711,103.866,29.711L103.866,29.711z M17.305,4.891
			c0.387-1.041,1.393-1.739,2.502-1.739h67.95c1.11,0,2.116,0.699,2.502,1.739l9.22,24.82H77.576L57.447,9.583
			c-0.979-0.979-2.28-1.518-3.665-1.518s-2.687,0.539-3.665,1.518L29.988,29.711H8.086L17.305,4.891z M104.413,36.38
			c0,0.302-0.245,0.547-0.547,0.547H75.429c-0.543,0-1.054-0.211-1.437-0.595L54.896,17.236c-0.296-0.295-0.696-0.461-1.114-0.461
			c-0.419,0-0.818,0.166-1.114,0.461L33.572,36.332c-0.384,0.384-0.895,0.595-1.438,0.595H3.698c-0.302,0-0.547-0.245-0.547-0.547
			v-2.971c0-0.302,0.245-0.547,0.547-0.547h26.942c0.418,0,0.819-0.166,1.115-0.461l20.59-20.59
			c0.384-0.383,0.894-0.595,1.437-0.595s1.054,0.211,1.437,0.595l20.59,20.59c0.296,0.295,0.697,0.461,1.115,0.461h26.943
			c0.301,0,0.546,0.245,0.546,0.547V36.38L104.413,36.38z"/>
		<path d="M94.741,83.795c0.87,0,1.575-0.706,1.575-1.576V54.207c0-0.87-0.705-1.576-1.575-1.576H73.519
			c-0.87,0-1.575,0.706-1.575,1.576V82.22c0,0.87,0.705,1.576,1.575,1.576H94.741z M93.165,73.853h-7.46v-7.459h7.46V73.853z
			 M82.554,73.853h-7.46v-7.459h7.46V73.853z M93.165,80.644H75.094v-3.64h18.071V80.644z M93.165,63.242h-7.46v-7.459h7.46V63.242z
			 M82.554,55.782v7.46h-7.46v-7.46H82.554z"/>
		<path d="M34.045,83.795c0.871,0,1.576-0.706,1.576-1.576V54.207c0-0.87-0.705-1.576-1.576-1.576H12.823
			c-0.87,0-1.575,0.706-1.575,1.576V82.22c0,0.87,0.705,1.576,1.575,1.576H34.045z M32.47,73.853h-7.46v-7.459h7.46V73.853z
			 M21.859,73.853h-7.461v-7.459h7.461V73.853z M32.47,80.644H14.398v-3.64H32.47V80.644z M32.47,63.242h-7.46v-7.459h7.46V63.242z
			 M21.859,55.782v7.46h-7.461v-7.46H21.859z"/>
		<path d="M58.875,59.422H48.688c-0.87,0-1.575,0.706-1.575,1.576v6.792c0,0.87,0.705,1.575,1.575,1.575h10.187
			c0.871,0,1.576-0.705,1.576-1.575v-6.792C60.451,60.127,59.746,59.422,58.875,59.422z M57.3,66.213h-7.035v-3.64H57.3V66.213z"/>
		<path d="M62.148,39.563c0-4.613-3.753-8.367-8.366-8.367s-8.367,3.753-8.367,8.367s3.754,8.367,8.367,8.367
			S62.148,44.177,62.148,39.563z M48.566,39.563c0-2.875,2.34-5.215,5.216-5.215s5.216,2.34,5.216,5.215
			c0,2.876-2.34,5.216-5.216,5.216S48.566,42.439,48.566,39.563L48.566,39.563z"/>
		<path d="M105.988,86.162h-2.668V51.626c0-0.871-0.705-1.576-1.576-1.576c-0.87,0-1.576,0.705-1.576,1.576v34.536H67.242V54.207
			c0-0.87-0.705-1.576-1.576-1.576H41.897c-0.87,0-1.575,0.706-1.575,1.576v31.955H7.396v-4.177c0-0.87-0.705-1.576-1.575-1.576
			c-0.871,0-1.576,0.706-1.576,1.576v4.177H1.576C0.705,86.162,0,86.867,0,87.737v7.216c0,0.87,0.705,1.576,1.576,1.576h104.412
			c0.871,0,1.576-0.706,1.576-1.576v-7.216C107.564,86.867,106.859,86.162,105.988,86.162z M43.474,74.67h2.244
			c0.87,0,1.576-0.706,1.576-1.576s-0.706-1.576-1.576-1.576h-2.244V55.782h20.617v30.379H43.474V74.67z M104.413,93.377H3.151
			v-4.064h101.262V93.377z"/>
	</g>
</g>
</svg>
