<?xml version="1.0" encoding="utf-8"?>
<!-- Generator: Adobe Illustrator 16.0.0, SVG Export Plug-In . SVG Version: 6.00 Build 0)  -->
<!DOCTYPE svg PUBLIC "-//W3C//DTD SVG 1.1//EN" "http://www.w3.org/Graphics/SVG/1.1/DTD/svg11.dtd">
<svg version="1.1" id="Layer_1" xmlns="http://www.w3.org/2000/svg" xmlns:xlink="http://www.w3.org/1999/xlink" x="0px" y="0px"
	 width="102.673px" height="102.673px" viewBox="0 0 102.673 102.673" enable-background="new 0 0 102.673 102.673"
	 xml:space="preserve">
<g id="Analysis_Report" opacity="0.7">
	<path fill="#FF3051" d="M100.91,30.803H70.16V1.711C86.508,1.708,100.008,14.479,100.91,30.803z"/>
	<path fill="#CD2A00" d="M100.91,30.803h-6.845C93.303,17.088,83.552,5.536,70.16,2.481V1.711
		C86.508,1.708,100.008,14.479,100.91,30.803z"/>
	<path fill="#57A4FF" d="M94.065,37.647c0.034,0.564,0.051,1.146,0.051,1.71c0,17.012-13.789,30.803-30.801,30.803
		c-2.305,0.008-4.603-0.256-6.846-0.787c-6.062-1.357-11.563-4.541-15.76-9.121l22.605-22.604H94.065z"/>
	<path fill="#9CDD05" d="M63.315,8.556v29.092L40.71,60.252c-11.547-12.463-10.806-31.926,1.657-43.473
		c3.965-3.675,8.83-6.239,14.103-7.437C58.713,8.812,61.011,8.548,63.315,8.556z"/>
	<path fill="#FEE9AB" d="M56.47,69.373v31.589H1.711V15.4h13.69V1.711H56.47v7.632c-16.569,3.759-26.954,20.236-23.195,36.806
		c1.196,5.273,3.761,10.138,7.436,14.104C44.907,64.832,50.408,68.016,56.47,69.373z M42.78,80.428
		c0-7.527-6.077-13.643-13.604-13.69H29.09c-7.56-0.023-13.708,6.087-13.732,13.646c-0.024,7.562,6.086,13.709,13.647,13.733h0.085
		C36.651,94.117,42.78,87.987,42.78,80.428z"/>
	<path fill="#FFD422" d="M29.176,66.737H29.09c-7.56-0.023-13.708,6.087-13.732,13.646c-0.024,7.562,6.086,13.709,13.647,13.733
		h0.085C36.651,94.14,42.8,88.031,42.823,80.47S36.736,66.762,29.176,66.737z"/>
	<path fill="#FF3051" d="M15.401,1.711V15.4H1.711L15.401,1.711z"/>
	<path fill="#EBBF00" d="M42.78,80.428c0,7.56-6.129,13.689-13.69,13.689h-0.085c-1.114-0.011-2.223-0.154-3.303-0.429
		c7.319-1.912,11.702-9.397,9.789-16.717c-1.259-4.817-5.034-8.572-9.858-9.807c1.131-0.282,2.292-0.425,3.457-0.428h0.086
		C36.704,66.785,42.78,72.9,42.78,80.428z"/>
	<path d="M95.828,37.647c0-0.946-0.766-1.712-1.712-1.712H65.025V8.556c0-0.945-0.766-1.711-1.71-1.711
		c-1.721,0.009-3.438,0.158-5.135,0.445V1.711C58.181,0.766,57.415,0,56.47,0H15.401c-0.454,0.004-0.889,0.182-1.215,0.496
		L0.496,14.186C0.181,14.512,0.003,14.947,0,15.4v85.562c0,0.945,0.766,1.711,1.711,1.711H56.47c0.945,0,1.711-0.766,1.711-1.711
		V71.426c1.697,0.287,3.414,0.436,5.135,0.445c17.948-0.017,32.496-14.563,32.513-32.514c0-0.462-0.017-0.924-0.034-1.386
		C95.814,37.865,95.827,37.756,95.828,37.647z M61.604,10.318v26.626L40.795,57.753c-10.167-12.429-8.333-30.747,4.096-40.914
		C49.635,12.959,55.485,10.677,61.604,10.318z M13.69,5.836v7.854H5.835L13.69,5.836z M54.76,99.25H3.422V17.112h11.979
		c0.944,0,1.711-0.766,1.711-1.712V3.423H54.76v4.602c-17.305,4.699-27.524,22.536-22.826,39.842
		c3.019,11.119,11.705,19.805,22.826,22.825V99.25z M63.315,68.448c-7.542,0-14.786-2.94-20.193-8.196l20.894-20.895h28.389
		C92.383,55.415,79.372,68.426,63.315,68.448z"/>
	<path d="M70.16,32.513h30.801v-0.01c0.94-0.021,1.683-0.8,1.661-1.738c0-0.019-0.001-0.037-0.003-0.056
		C101.677,13.475,87.42-0.014,70.16,0c-0.945,0-1.711,0.766-1.711,1.711v29.092C68.449,31.747,69.215,32.513,70.16,32.513z
		 M99.049,29.09H71.871V3.473C85.944,4.29,97.4,15.09,99.049,29.09z"/>
	<path d="M29.09,65.025c-8.505,0-15.4,6.896-15.4,15.402s6.895,15.4,15.4,15.4c8.506,0,15.401-6.895,15.401-15.4
		C44.479,71.927,37.591,65.039,29.09,65.025z M29.09,92.405c-6.615,0-11.978-5.363-11.978-11.978
		c0-6.616,5.363-11.979,11.978-11.979c6.616,0,11.979,5.363,11.979,11.979C41.062,87.039,35.703,92.398,29.09,92.405z"/>
	<path d="M34.224,83.85c-0.011,2.168-1.379,4.098-3.422,4.825v2.019h-3.423v-2.019c-2.042-0.728-3.41-2.657-3.421-4.825h3.421
		c0,0.945,0.767,1.711,1.711,1.711c0.945,0,1.711-0.766,1.711-1.711s-0.766-1.712-1.711-1.712c-2.835-0.022-5.116-2.338-5.093-5.173
		c0.017-2.146,1.366-4.054,3.382-4.786V70.16h3.423v2.019c2.043,0.728,3.411,2.657,3.422,4.826h-3.422
		c0-0.946-0.766-1.712-1.711-1.712c-0.945,0-1.711,0.766-1.711,1.712c0,0.944,0.767,1.711,1.711,1.711
		C31.922,78.725,34.216,81.018,34.224,83.85z"/>
	<path d="M10.268,23.957h17.111v3.423H10.268V23.957z"/>
	<path d="M10.268,34.225h17.111v3.423H10.268V34.225z"/>
	<path d="M10.268,44.492h17.111v3.421H10.268V44.492z"/>
	<path d="M10.268,54.758h17.111v3.423H10.268V54.758z"/>
	<path d="M65.025,78.716h6.846v3.422h-6.846V78.716z"/>
	<path d="M75.293,78.716h27.38v3.422h-27.38V78.716z"/>
	<path d="M65.025,88.982h6.846v3.423h-6.846V88.982z"/>
	<path d="M75.293,88.982h27.38v3.423h-27.38V88.982z"/>
	<path d="M65.025,99.25h6.846v3.423h-6.846V99.25z"/>
	<path d="M75.293,99.25h27.38v3.423h-27.38V99.25z"/>
</g>
</svg>
