<?xml version="1.0" encoding="utf-8"?>
<!-- Generator: Adobe Illustrator 16.0.0, SVG Export Plug-In . SVG Version: 6.00 Build 0)  -->
<!DOCTYPE svg PUBLIC "-//W3C//DTD SVG 1.1//EN" "http://www.w3.org/Graphics/SVG/1.1/DTD/svg11.dtd">
<svg version="1.1" id="Layer_1" xmlns="http://www.w3.org/2000/svg" xmlns:xlink="http://www.w3.org/1999/xlink" x="0px" y="0px"
	 width="189.454px" height="122.75px" viewBox="0 0 189.454 122.75" enable-background="new 0 0 189.454 122.75"
	 xml:space="preserve">
<g>
	<g>
		<text transform="matrix(1 0 0 1 0 117.7344)" fill="#FFFFFF" font-family="'NeoSans'" font-size="24">HOA Management</text>
	</g>
	<g>
		<g>
			<g>
				<path fill="#E89C31" d="M140.638,40.939V16.833L117.712,9.19v31.749h-3.274V4.913H75.135v36.026h-3.274v-19.65h-3.275V9.825
					h-6.55V0H58.76v9.825h-6.551v11.463h-3.275v19.65H45.66v45.852h29.476v3.275h39.303v-3.275h29.476V40.939H140.638z
					 M55.485,13.101h9.825v8.188h-9.825V13.101z M52.209,24.563h16.376v16.375H52.209V24.563z M75.135,83.516H48.934V44.214h26.201
					V83.516z M98.061,86.791h-6.55V70.415h6.55V86.791z M111.163,86.791h-9.826V67.14h-13.1v19.651h-9.826V8.188h32.752V86.791z
					 M120.988,13.736l16.376,5.458v21.745h-3.275v-19.65h-3.275v19.65h-3.275v-19.65h-3.275v19.65h-3.274V13.736z M130.813,83.516
					h-6.551v-6.55h6.551V83.516z M140.638,83.516h-6.55V73.69h-13.101v9.825h-6.55V44.214h26.2V83.516z"/>
			</g>
		</g>
		<g>
			<g>
				<rect x="52.209" y="47.489" fill="#E89C31" width="19.651" height="3.275"/>
			</g>
		</g>
		<g>
			<g>
				<rect x="52.209" y="54.04" fill="#E89C31" width="19.651" height="3.275"/>
			</g>
		</g>
		<g>
			<g>
				<rect x="52.209" y="60.59" fill="#E89C31" width="19.651" height="3.275"/>
			</g>
		</g>
		<g>
			<g>
				<rect x="52.209" y="67.14" fill="#E89C31" width="19.651" height="3.275"/>
			</g>
		</g>
		<g>
			<g>
				<path fill="#E89C31" d="M83.324,14.738v9.826h9.825v-9.826H83.324z M89.874,21.289h-3.275v-3.275h3.275V21.289z"/>
			</g>
		</g>
		<g>
			<g>
				<path fill="#E89C31" d="M96.424,14.738v9.826h9.825v-9.826H96.424z M102.974,21.289H99.7v-3.275h3.274V21.289z"/>
			</g>
		</g>
		<g>
			<g>
				<path fill="#E89C31" d="M83.324,27.839v9.825h9.825v-9.825H83.324z M89.874,34.389h-3.275v-3.275h3.275V34.389z"/>
			</g>
		</g>
		<g>
			<g>
				<path fill="#E89C31" d="M96.424,27.839v9.825h9.825v-9.825H96.424z M102.974,34.389H99.7v-3.275h3.274V34.389z"/>
			</g>
		</g>
		<g>
			<g>
				<path fill="#E89C31" d="M83.324,40.939v9.826h9.825v-9.826H83.324z M89.874,47.489h-3.275v-3.275h3.275V47.489z"/>
			</g>
		</g>
		<g>
			<g>
				<path fill="#E89C31" d="M96.424,40.939v9.826h9.825v-9.826H96.424z M102.974,47.489H99.7v-3.275h3.274V47.489z"/>
			</g>
		</g>
		<g>
			<g>
				<path fill="#E89C31" d="M83.324,54.04v9.825h9.825V54.04H83.324z M89.874,60.59h-3.275v-3.275h3.275V60.59z"/>
			</g>
		</g>
		<g>
			<g>
				<path fill="#E89C31" d="M96.424,54.04v9.825h9.825V54.04H96.424z M102.974,60.59H99.7v-3.275h3.274V60.59z"/>
			</g>
		</g>
		<g>
			<g>
				<rect x="117.712" y="47.489" fill="#E89C31" width="3.275" height="3.275"/>
			</g>
		</g>
		<g>
			<g>
				<rect x="124.262" y="47.489" fill="#E89C31" width="6.551" height="3.275"/>
			</g>
		</g>
		<g>
			<g>
				<rect x="134.088" y="47.489" fill="#E89C31" width="3.275" height="3.275"/>
			</g>
		</g>
		<g>
			<g>
				<rect x="117.712" y="54.04" fill="#E89C31" width="3.275" height="3.275"/>
			</g>
		</g>
		<g>
			<g>
				<rect x="124.262" y="54.04" fill="#E89C31" width="6.551" height="3.275"/>
			</g>
		</g>
		<g>
			<g>
				<rect x="134.088" y="54.04" fill="#E89C31" width="3.275" height="3.275"/>
			</g>
		</g>
		<g>
			<g>
				<rect x="117.712" y="60.59" fill="#E89C31" width="3.275" height="3.275"/>
			</g>
		</g>
		<g>
			<g>
				<rect x="124.262" y="60.59" fill="#E89C31" width="6.551" height="3.275"/>
			</g>
		</g>
		<g>
			<g>
				<rect x="134.088" y="60.59" fill="#E89C31" width="3.275" height="3.275"/>
			</g>
		</g>
		<g>
			<g>
				<rect x="117.712" y="67.14" fill="#E89C31" width="3.275" height="3.275"/>
			</g>
		</g>
		<g>
			<g>
				<rect x="124.262" y="67.14" fill="#E89C31" width="6.551" height="3.275"/>
			</g>
		</g>
		<g>
			<g>
				<rect x="134.088" y="67.14" fill="#E89C31" width="3.275" height="3.275"/>
			</g>
		</g>
	</g>
</g>
</svg>
