<?xml version="1.0" encoding="UTF-8" standalone="no"?>
<!-- Generator: Adobe Illustrator 16.0.0, SVG Export Plug-In . SVG Version: 6.00 Build 0)  -->

<svg
   xmlns:dc="http://purl.org/dc/elements/1.1/"
   xmlns:cc="http://creativecommons.org/ns#"
   xmlns:rdf="http://www.w3.org/1999/02/22-rdf-syntax-ns#"
   xmlns:svg="http://www.w3.org/2000/svg"
   xmlns="http://www.w3.org/2000/svg"
   xmlns:sodipodi="http://sodipodi.sourceforge.net/DTD/sodipodi-0.dtd"
   xmlns:inkscape="http://www.inkscape.org/namespaces/inkscape"
   version="1.1"
   id="Layer_1"
   x="0px"
   y="0px"
   width="98.254997"
   height="90.065002"
   viewBox="0 0 98.255 90.065002"
   enable-background="new 0 0 189.454 122.75"
   xml:space="preserve"
   sodipodi:docname="logo-no-text.svg"
   inkscape:version="0.92.5 (2060ec1f9f, 2020-04-08)"><metadata
   id="metadata165"><rdf:RDF><cc:Work
       rdf:about=""><dc:format>image/svg+xml</dc:format><dc:type
         rdf:resource="http://purl.org/dc/dcmitype/StillImage" /><dc:title /></cc:Work></rdf:RDF></metadata><defs
   id="defs163">
	
	
</defs><sodipodi:namedview
   pagecolor="#ffffff"
   bordercolor="#666666"
   borderopacity="1"
   objecttolerance="10"
   gridtolerance="10"
   guidetolerance="10"
   inkscape:pageopacity="0"
   inkscape:pageshadow="2"
   inkscape:window-width="1366"
   inkscape:window-height="698"
   id="namedview161"
   showgrid="false"
   inkscape:zoom="2.3737684"
   inkscape:cx="-8.4145284"
   inkscape:cy="43.551032"
   inkscape:window-x="0"
   inkscape:window-y="34"
   inkscape:window-maximized="1"
   inkscape:current-layer="Layer_1" />
<g
   id="g156"
   transform="translate(-45.66)">
		<g
   id="g10">
			<g
   id="g8">
				<path
   style="fill:#e89c31"
   inkscape:connector-curvature="0"
   id="path6"
   d="M 140.638,40.939 V 16.833 L 117.712,9.19 v 31.749 h -3.274 V 4.913 H 75.135 V 40.939 H 71.861 V 21.289 H 68.586 V 9.825 h -6.55 V 0 H 58.76 v 9.825 h -6.551 v 11.463 h -3.275 v 19.65 H 45.66 V 86.79 h 29.476 v 3.275 h 39.303 V 86.79 h 29.476 V 40.939 Z M 55.485,13.101 h 9.825 v 8.188 H 55.485 Z M 52.209,24.563 H 68.585 V 40.938 H 52.209 Z M 75.135,83.516 H 48.934 V 44.214 h 26.201 z m 22.926,3.275 h -6.55 V 70.415 h 6.55 z m 13.102,0 h -9.826 V 67.14 h -13.1 V 86.791 H 78.411 V 8.188 h 32.752 z m 9.825,-73.055 16.376,5.458 v 21.745 h -3.275 v -19.65 h -3.275 v 19.65 h -3.275 v -19.65 h -3.275 v 19.65 H 120.99 V 13.736 Z m 9.825,69.78 h -6.551 v -6.55 h 6.551 z m 9.825,0 h -6.55 V 73.69 h -13.101 v 9.825 h -6.55 V 44.214 h 26.2 v 39.302 z" />
			</g>
		</g>
		<g
   id="g16">
			<g
   id="g14">
				<rect
   style="fill:#e89c31"
   id="rect12"
   height="3.2750001"
   width="19.650999"
   y="47.488998"
   x="52.209" />
			</g>
		</g>
		<g
   id="g22">
			<g
   id="g20">
				<rect
   style="fill:#e89c31"
   id="rect18"
   height="3.2750001"
   width="19.650999"
   y="54.040001"
   x="52.209" />
			</g>
		</g>
		<g
   id="g28">
			<g
   id="g26">
				<rect
   style="fill:#e89c31"
   id="rect24"
   height="3.2750001"
   width="19.650999"
   y="60.59"
   x="52.209" />
			</g>
		</g>
		<g
   id="g34">
			<g
   id="g32">
				<rect
   style="fill:#e89c31"
   id="rect30"
   height="3.2750001"
   width="19.650999"
   y="67.139999"
   x="52.209" />
			</g>
		</g>
		<g
   id="g40">
			<g
   id="g38">
				<path
   style="fill:#e89c31"
   inkscape:connector-curvature="0"
   id="path36"
   d="m 83.324,14.738 v 9.826 h 9.825 v -9.826 z m 6.55,6.551 h -3.275 v -3.275 h 3.275 z" />
			</g>
		</g>
		<g
   id="g46">
			<g
   id="g44">
				<path
   style="fill:#e89c31"
   inkscape:connector-curvature="0"
   id="path42"
   d="m 96.424,14.738 v 9.826 h 9.825 v -9.826 z m 6.55,6.551 H 99.7 v -3.275 h 3.274 z" />
			</g>
		</g>
		<g
   id="g52">
			<g
   id="g50">
				<path
   style="fill:#e89c31"
   inkscape:connector-curvature="0"
   id="path48"
   d="m 83.324,27.839 v 9.825 h 9.825 v -9.825 z m 6.55,6.55 h -3.275 v -3.275 h 3.275 z" />
			</g>
		</g>
		<g
   id="g58">
			<g
   id="g56">
				<path
   style="fill:#e89c31"
   inkscape:connector-curvature="0"
   id="path54"
   d="m 96.424,27.839 v 9.825 h 9.825 v -9.825 z m 6.55,6.55 H 99.7 v -3.275 h 3.274 z" />
			</g>
		</g>
		<g
   id="g64">
			<g
   id="g62">
				<path
   style="fill:#e89c31"
   inkscape:connector-curvature="0"
   id="path60"
   d="m 83.324,40.939 v 9.826 h 9.825 v -9.826 z m 6.55,6.55 h -3.275 v -3.275 h 3.275 z" />
			</g>
		</g>
		<g
   id="g70">
			<g
   id="g68">
				<path
   style="fill:#e89c31"
   inkscape:connector-curvature="0"
   id="path66"
   d="m 96.424,40.939 v 9.826 h 9.825 v -9.826 z m 6.55,6.55 H 99.7 v -3.275 h 3.274 z" />
			</g>
		</g>
		<g
   id="g76">
			<g
   id="g74">
				<path
   style="fill:#e89c31"
   inkscape:connector-curvature="0"
   id="path72"
   d="m 83.324,54.04 v 9.825 h 9.825 V 54.04 Z m 6.55,6.55 h -3.275 v -3.275 h 3.275 z" />
			</g>
		</g>
		<g
   id="g82">
			<g
   id="g80">
				<path
   style="fill:#e89c31"
   inkscape:connector-curvature="0"
   id="path78"
   d="m 96.424,54.04 v 9.825 h 9.825 V 54.04 Z m 6.55,6.55 H 99.7 v -3.275 h 3.274 z" />
			</g>
		</g>
		<g
   id="g88">
			<g
   id="g86">
				<rect
   style="fill:#e89c31"
   id="rect84"
   height="3.2750001"
   width="3.2750001"
   y="47.488998"
   x="117.712" />
			</g>
		</g>
		<g
   id="g94">
			<g
   id="g92">
				<rect
   style="fill:#e89c31"
   id="rect90"
   height="3.2750001"
   width="6.5510001"
   y="47.488998"
   x="124.262" />
			</g>
		</g>
		<g
   id="g100">
			<g
   id="g98">
				<rect
   style="fill:#e89c31"
   id="rect96"
   height="3.2750001"
   width="3.2750001"
   y="47.488998"
   x="134.088" />
			</g>
		</g>
		<g
   id="g106">
			<g
   id="g104">
				<rect
   style="fill:#e89c31"
   id="rect102"
   height="3.2750001"
   width="3.2750001"
   y="54.040001"
   x="117.712" />
			</g>
		</g>
		<g
   id="g112">
			<g
   id="g110">
				<rect
   style="fill:#e89c31"
   id="rect108"
   height="3.2750001"
   width="6.5510001"
   y="54.040001"
   x="124.262" />
			</g>
		</g>
		<g
   id="g118">
			<g
   id="g116">
				<rect
   style="fill:#e89c31"
   id="rect114"
   height="3.2750001"
   width="3.2750001"
   y="54.040001"
   x="134.088" />
			</g>
		</g>
		<g
   id="g124">
			<g
   id="g122">
				<rect
   style="fill:#e89c31"
   id="rect120"
   height="3.2750001"
   width="3.2750001"
   y="60.59"
   x="117.712" />
			</g>
		</g>
		<g
   id="g130">
			<g
   id="g128">
				<rect
   style="fill:#e89c31"
   id="rect126"
   height="3.2750001"
   width="6.5510001"
   y="60.59"
   x="124.262" />
			</g>
		</g>
		<g
   id="g136">
			<g
   id="g134">
				<rect
   style="fill:#e89c31"
   id="rect132"
   height="3.2750001"
   width="3.2750001"
   y="60.59"
   x="134.088" />
			</g>
		</g>
		<g
   id="g142">
			<g
   id="g140">
				<rect
   style="fill:#e89c31"
   id="rect138"
   height="3.2750001"
   width="3.2750001"
   y="67.139999"
   x="117.712" />
			</g>
		</g>
		<g
   id="g148">
			<g
   id="g146">
				<rect
   style="fill:#e89c31"
   id="rect144"
   height="3.2750001"
   width="6.5510001"
   y="67.139999"
   x="124.262" />
			</g>
		</g>
		<g
   id="g154">
			<g
   id="g152">
				<rect
   style="fill:#e89c31"
   id="rect150"
   height="3.2750001"
   width="3.2750001"
   y="67.139999"
   x="134.088" />
			</g>
		</g>
	</g>
</svg>