<?xml version="1.0" encoding="utf-8"?>
<!-- Generator: Adobe Illustrator 16.0.0, SVG Export Plug-In . SVG Version: 6.00 Build 0)  -->
<!DOCTYPE svg PUBLIC "-//W3C//DTD SVG 1.1//EN" "http://www.w3.org/Graphics/SVG/1.1/DTD/svg11.dtd">
<svg version="1.1" id="Layer_1" xmlns="http://www.w3.org/2000/svg" xmlns:xlink="http://www.w3.org/1999/xlink" x="0px" y="0px"
	 width="23.315px" height="23.518px" viewBox="0 0 23.315 23.518" enable-background="new 0 0 23.315 23.518" xml:space="preserve">
<g>
	<path fill="#E89C31" d="M9.201,0c2.824,0,5.112,2.289,5.112,5.111c0,2.826-2.288,5.113-5.112,5.113c-2.821,0-5.11-2.287-5.11-5.113
		C4.091,2.289,6.38,0,9.201,0"/>
	<path fill="#E89C31" d="M11.793,21.268c-0.533-0.922-0.426-2.059,0.207-2.863c-0.633-0.805-0.74-1.939-0.207-2.863l0.827-1.432
		c0.455-0.787,1.304-1.277,2.214-1.277c0.125,0,0.248,0.01,0.37,0.025c0.033-0.082,0.076-0.162,0.117-0.242
		c-0.551-0.217-1.147-0.346-1.774-0.346h-8.69C2.178,12.27,0,14.449,0,17.127v3.578c0,0.424,0.343,0.768,0.767,0.768H11.91
		L11.793,21.268z"/>
	<path fill="#E89C31" d="M22.19,18.885c0.021-0.16,0.048-0.316,0.048-0.48s-0.028-0.32-0.048-0.479l0.921-0.699
		c0.205-0.154,0.265-0.439,0.135-0.662l-0.827-1.432c-0.129-0.223-0.404-0.316-0.642-0.217l-1.06,0.447
		c-0.258-0.197-0.535-0.371-0.838-0.498l-0.142-1.125c-0.032-0.256-0.249-0.447-0.507-0.447h-1.653
		c-0.258,0-0.476,0.191-0.508,0.447l-0.142,1.125c-0.301,0.127-0.58,0.303-0.838,0.498l-1.059-0.447
		c-0.236-0.1-0.514-0.008-0.643,0.217l-0.825,1.432c-0.13,0.223-0.072,0.506,0.133,0.662l0.922,0.699
		c-0.021,0.158-0.049,0.314-0.049,0.479s0.028,0.32,0.049,0.48l-0.922,0.697c-0.205,0.154-0.263,0.439-0.133,0.662l0.825,1.434
		c0.129,0.223,0.406,0.316,0.643,0.215l1.059-0.447c0.26,0.197,0.537,0.371,0.838,0.498l0.142,1.125
		c0.032,0.256,0.249,0.449,0.507,0.449h1.653c0.258,0,0.476-0.193,0.508-0.449l0.142-1.125c0.301-0.127,0.58-0.301,0.838-0.498
		l1.059,0.447c0.236,0.1,0.513,0.008,0.643-0.217l0.825-1.432c0.129-0.223,0.072-0.508-0.133-0.664L22.19,18.885z M18.404,20.449
		c-1.13,0-2.045-0.914-2.045-2.045c0-1.129,0.915-2.045,2.045-2.045c1.129,0,2.045,0.916,2.045,2.045
		C20.449,19.535,19.533,20.449,18.404,20.449"/>
</g>
</svg>
