<?xml version="1.0" encoding="utf-8"?>
<!-- Generator: Adobe Illustrator 16.0.0, SVG Export Plug-In . SVG Version: 6.00 Build 0)  -->
<!DOCTYPE svg PUBLIC "-//W3C//DTD SVG 1.1//EN" "http://www.w3.org/Graphics/SVG/1.1/DTD/svg11.dtd">
<svg version="1.1" id="Layer_1" xmlns="http://www.w3.org/2000/svg" xmlns:xlink="http://www.w3.org/1999/xlink" x="0px" y="0px"
	 width="124.332px" height="138.427px" viewBox="0 0 124.332 138.427" enable-background="new 0 0 124.332 138.427"
	 xml:space="preserve">
<g>
	<g>
		<g>
			<path fill="#CCD4DB" d="M31.427,76.179c-2.688,2.561-3.688,6.828-5.311,10.063c-0.481,0.76,0.639,1.684,1.369,0.867
				c2.08-2.945,4.239-6.691,5.31-10.063C32.877,76.245,31.965,75.667,31.427,76.179z"/>
			<path fill="#CCD4DB" d="M5.427,127.179c-2.688,2.561-3.688,6.828-5.311,10.063c-0.481,0.76,0.639,1.684,1.369,0.867
				c2.08-2.945,4.239-6.691,5.31-10.063C6.877,127.245,5.965,126.667,5.427,127.179z"/>
			<path fill="#CCD4DB" d="M21.427,96.179c-2.688,2.561-3.688,6.828-5.311,10.063c-0.481,0.76,0.639,1.684,1.369,0.867
				c2.08-2.945,4.239-6.691,5.31-10.063C22.877,96.245,21.965,95.667,21.427,96.179z"/>
			<path fill="#CCD4DB" d="M47.095,60.536c-3.478,0.779-6.054,3.834-7.637,6.668c-0.385,0.607,0.527,1.186,0.913,0.578
				c1.115-1.424,2.287-2.6,3.61-3.68c1.227-0.928,2.509-1.605,3.736-2.533C48.312,61.306,47.839,60.368,47.095,60.536z"/>
			<path fill="#CCD4DB" d="M69.071,52.085c-1.754-0.26-3.74,0.188-5.423,0.824c-1.74,0.391-3.52,1.182-5.051,1.916
				c-0.593,0.264-0.273,1.104,0.319,0.842c1.684-0.639,3.422-1.029,5.065-1.266c1.738-0.391,3.587-0.283,5.327-0.674
				C70.206,53.657,70.023,52.263,69.071,52.085z"/>
			<path fill="#CCD4DB" d="M80.426,55.019c-1.049-0.025-1.115,1.424-0.066,1.449c0.953,0.178,2.154,0.299,3.107,0.479
				c1.257,0.369,2.225,1.195,3.427,1.318c0.553,0.137,1.034-0.623,0.675-1.064C86.377,55.38,82.676,55.167,80.426,55.019z"/>
			<path fill="#CCD4DB" d="M102.033,62.958c-1.521-0.965-3.041-1.928-4.603-2.49c-0.856-0.33-1.435,0.582-0.674,1.064
				c1.272,1.018,2.489,1.789,3.857,2.656s2.543,2.039,4.201,2.449c0.704,0.234,1.379-0.83,0.867-1.367
				C104.659,64.194,103.347,63.575,102.033,62.958z"/>
			<path fill="#CCD4DB" d="M113.102,75.085c1.135,1.572,2.27,3.143,3.212,5.02c0.888,1.627,1.581,3.559,3.005,4.674
				c0.665,0.635,1.49-0.334,1.477-0.982c-0.295-1.891-1.733-3.656-2.869-5.227c-1.039-1.725-2.27-3.143-3.598-4.412
				C113.512,73.429,112.438,74.452,113.102,75.085z"/>
			<path fill="#CCD4DB" d="M120.474,89.347c0.484,1.588,1.124,3.271,1.459,4.76c0.167,0.746,0.237,1.645,0.155,2.443
				c-0.08,0.801-0.273,1.105,0.046,1.947c0.263,0.594,1.063,0.674,1.506,0.314c1.171-1.176,0.573-3.26,0.239-4.748
				c-0.542-1.836-1.429-3.463-2.468-5.188C121.052,88.435,120.21,88.755,120.474,89.347z"/>
			<path fill="#CCD4DB" d="M116.855,103.464c0.126,1.145,0.005,2.348-0.573,3.26c-0.481,0.76-1.212,1.576-0.989,2.568
				c0.111,0.498,0.567,0.787,1.063,0.674c2.484-0.555,2.282-4.945,1.644-6.629C117.738,102.743,116.841,102.813,116.855,103.464z"/>
			<path fill="#CCD4DB" d="M107.495,111.171c-0.922,1.121-2.095,2.295-3.32,3.223c-1.476,0.984-2.926,0.918-4.623,0.908
				c-0.898,0.07-1.324,1.078-0.509,1.809c4.01,2.754,8.046-1.934,9.517-5.266C108.697,111.294,107.784,110.714,107.495,111.171z"/>
			<path fill="#CCD4DB" d="M92.643,112.415c-3.052-0.229-5.14-1.979-7.861-3.064c-0.704-0.232-1.282,0.68-0.771,1.217
				c2.295,2.094,5.514,3.068,8.606,2.896C93.266,113.448,93.348,112.647,92.643,112.415z"/>
			<path fill="#CCD4DB" d="M66.876,95.233c0.85,4.375,4.267,7.393,7.859,9.455c0.608,0.387,1.282-0.678,0.675-1.063
				c-3.097-2.176-5.712-5.111-7.044-8.727C68.144,93.905,66.653,94.239,66.876,95.233z"/>
			<path fill="#CCD4DB" d="M61.517,79.478c-0.366,3.604,0.869,7.369,2.395,10.68c0.319,0.842,1.603,0.164,1.187-0.525
				c-1.124-3.271-1.504-6.707-2.132-10.09C62.743,78.55,61.599,78.677,61.517,79.478z"/>
			<path fill="#CCD4DB" d="M58.382,64.919c-1.348,2.127-1.065,5.717-0.412,8.049c0.223,0.992,1.713,0.658,1.49-0.334
				c-0.279-1.242-0.309-2.541-0.187-3.742s0.491-2.457,0.462-3.756C59.72,64.487,58.671,64.462,58.382,64.919z"/>
			<path fill="#CCD4DB" d="M64.907,40.495c-0.771,1.217-1.086,2.723-1.704,4.035c-0.659,1.713-1.471,3.33-1.729,5.084
				c-0.178,0.953,1.079,1.324,1.408,0.467c0.564-1.561,1.375-3.178,2.09-4.643c0.619-1.313,1.583-2.832,1.497-4.379
				C66.646,40.106,65.39,39.735,64.907,40.495z"/>
			<path fill="#CCD4DB" d="M71.963,26.001c-1.709,1.688-2.794,4.408-3.991,6.633c-0.482,0.762,0.582,1.436,1.064,0.676
				c1.501-2.033,3.402-4.025,4.295-6.441C73.66,26.011,72.597,25.335,71.963,26.001z"/>
			<path fill="#CCD4DB" d="M12.963,113.001c-1.709,1.688-2.794,4.408-3.991,6.633c-0.482,0.762,0.582,1.436,1.064,0.676
				c1.501-2.033,3.402-4.025,4.295-6.441C14.66,113.011,13.597,112.335,12.963,113.001z"/>
			<path fill="#CCD4DB" d="M81.684,12.341c-0.979,0.871-1.501,2.033-2.175,3.098c-0.675,1.063-1.446,2.281-1.969,3.441
				c-0.482,0.76,0.734,1.531,1.217,0.771c0.674-1.064,1.445-2.283,2.271-3.25c0.675-1.064,1.502-2.031,1.872-3.289
				C83.285,12.503,82.373,11.925,81.684,12.341z"/>
			<path fill="#CCD4DB" d="M90.137,0.011c-3.229,0.725-6.307,1.545-9.327,2.613c-2.18,0.748-5.906,1.586-7.007,3.658
				c-0.481,0.76,0.045,1.945,1.095,1.973c2.098,0.051,4.359-1.5,6.139-2.291c2.276-0.9,4.856-1.611,7.438-2.32
				c-0.711,3.813-0.965,7.914-1.275,11.766c-0.122,1.201,1.937,1.654,2.307,0.396c1.191-4.572,0.88-9.459,2.624-13.895
				C92.555,0.903,91.283-0.116,90.137,0.011z"/>
		</g>
	</g>
</g>
</svg>
