<?xml version="1.0" encoding="utf-8"?>
<!-- Generator: Adobe Illustrator 16.0.0, SVG Export Plug-In . SVG Version: 6.00 Build 0)  -->
<!DOCTYPE svg PUBLIC "-//W3C//DTD SVG 1.1//EN" "http://www.w3.org/Graphics/SVG/1.1/DTD/svg11.dtd">
<svg version="1.1" id="Layer_1" xmlns="http://www.w3.org/2000/svg" xmlns:xlink="http://www.w3.org/1999/xlink" x="0px" y="0px"
	 width="22.904px" height="22.904px" viewBox="0 0 22.904 22.904" enable-background="new 0 0 22.904 22.904" xml:space="preserve">
<g>
	<path fill="#E89C31" d="M22.904,11.451C22.904,5.129,17.777,0,11.452,0C5.128,0,0,5.129,0,11.451
		c0,6.328,5.128,11.453,11.452,11.453C17.777,22.904,22.904,17.779,22.904,11.451z"/>
	<path fill="#FFFFFF" d="M18.571,18.91c-0.854-2.521-3.014-5.631-5.673-6.154c1.261-0.553,2.139-1.811,2.139-3.277
		c0-1.979-1.604-3.582-3.582-3.582c-1.981,0-3.588,1.604-3.588,3.582c0,1.467,0.881,2.725,2.139,3.277
		c-2.658,0.518-4.817,3.633-5.672,6.154c0,0,2.631,2.826,7.118,2.826C15.938,21.736,18.571,18.91,18.571,18.91z"/>
</g>
</svg>
