<?xml version="1.0" encoding="utf-8"?>
<!-- Generator: Adobe Illustrator 16.0.0, SVG Export Plug-In . SVG Version: 6.00 Build 0)  -->
<!DOCTYPE svg PUBLIC "-//W3C//DTD SVG 1.1//EN" "http://www.w3.org/Graphics/SVG/1.1/DTD/svg11.dtd">
<svg version="1.1" id="Layer_1" xmlns="http://www.w3.org/2000/svg" xmlns:xlink="http://www.w3.org/1999/xlink" x="0px" y="0px"
	 width="58.107px" height="58.108px" viewBox="0 0 58.107 58.108" enable-background="new 0 0 58.107 58.108" xml:space="preserve">
<g>
	<path d="M18.677,0.001H2.075C0.929,0.001,0,0.93,0,2.076v16.602c0,1.146,0.929,2.076,2.075,2.076h16.602
		c1.146,0,2.076-0.93,2.076-2.076V2.076C20.753,0.93,19.823,0.001,18.677,0.001 M16.603,16.602H4.151V4.15h12.451V16.602z"/>
	<path d="M10.376,6.227c-1.146,0-2.075,0.93-2.075,2.074v4.151c0,1.146,0.929,2.076,2.075,2.076s2.076-0.931,2.076-2.076V8.301
		C12.452,7.156,11.522,6.227,10.376,6.227"/>
	<path d="M18.677,37.355H2.075C0.929,37.355,0,38.285,0,39.43v16.604c0,1.146,0.929,2.074,2.075,2.074h16.602
		c1.146,0,2.076-0.929,2.076-2.074V39.43C20.753,38.285,19.823,37.355,18.677,37.355 M16.603,53.958H4.151V41.507h12.451V53.958z"/>
	<path d="M10.376,43.58c-1.146,0-2.075,0.931-2.075,2.076v4.151c0,1.146,0.929,2.075,2.075,2.075s2.076-0.93,2.076-2.075v-4.151
		C12.452,44.511,11.522,43.58,10.376,43.58"/>
	<path d="M56.032,37.355H39.431c-1.146,0-2.076,0.93-2.076,2.074v16.604c0,1.146,0.93,2.074,2.076,2.074h16.602
		c1.146,0,2.075-0.929,2.075-2.074V39.43C58.107,38.285,57.179,37.355,56.032,37.355 M53.957,53.958H41.505V41.507h12.452V53.958z"
		/>
	<path d="M47.731,43.58c-1.146,0-2.076,0.931-2.076,2.076v4.151c0,1.146,0.93,2.075,2.076,2.075s2.074-0.93,2.074-2.075v-4.151
		C49.806,44.511,48.878,43.58,47.731,43.58"/>
	<path d="M56.032,0H45.655c-1.146,0-2.074,0.931-2.074,2.076c0,1.146,0.929,2.074,2.074,2.074h8.302v8.301
		c0,1.147,0.929,2.076,2.075,2.076c1.146,0,2.075-0.929,2.075-2.076V2.076C58.107,0.931,57.178,0,56.032,0"/>
	<path d="M24.903,45.656c-1.146,0-2.076,0.93-2.076,2.076v8.301c0,1.146,0.93,2.074,2.076,2.074c1.146,0,2.075-0.929,2.075-2.074
		V47.73C26.979,46.586,26.049,45.656,24.903,45.656"/>
	<path d="M35.279,20.754H24.903c-1.146,0-2.076,0.929-2.076,2.074v8.301h-6.225c-1.146,0-2.076,0.931-2.076,2.076
		c0,1.146,0.93,2.074,2.076,2.074h8.301c1.146,0,2.075-0.928,2.075-2.074v-8.302h8.302c1.145,0,2.074-0.928,2.074-2.075
		C37.354,21.683,36.425,20.754,35.279,20.754"/>
	<path d="M18.677,24.904h-8.301c-1.146,0-2.075,0.929-2.075,2.074c0,1.147,0.929,2.075,2.075,2.075h8.301
		c1.146,0,2.076-0.928,2.076-2.075C20.753,25.833,19.823,24.904,18.677,24.904"/>
	<path d="M35.279,14.527h-8.301V8.301c0-1.145-0.929-2.074-2.075-2.074s-2.076,0.93-2.076,2.074v8.303
		c0,1.146,0.93,2.074,2.076,2.074h10.376c1.146,0,2.075-0.929,2.075-2.074C37.354,15.457,36.425,14.527,35.279,14.527"/>
	<path d="M49.806,8.301h-8.301V2.075C41.505,0.93,40.577,0,39.431,0H24.903c-1.146,0-2.076,0.93-2.076,2.075
		c0,1.147,0.93,2.076,2.076,2.076h12.451v6.226c0,1.147,0.93,2.074,2.076,2.074h10.375c1.146,0,2.076-0.927,2.076-2.074
		C51.882,9.231,50.952,8.301,49.806,8.301"/>
	<path d="M41.505,14.527c-1.146,0-2.074,0.93-2.074,2.076v8.301c0,1.145,0.928,2.074,2.074,2.074s2.076-0.93,2.076-2.074v-8.303
		C43.581,15.457,42.651,14.527,41.505,14.527"/>
	<path d="M56.032,16.602h-8.301c-1.146,0-2.076,0.931-2.076,2.076c0,1.147,0.93,2.075,2.076,2.075h8.301
		c1.146,0,2.075-0.928,2.075-2.075C58.107,17.532,57.178,16.602,56.032,16.602"/>
	<path d="M56.032,22.828h-8.301c-1.146,0-2.076,0.931-2.076,2.076s0.93,2.074,2.076,2.074h6.226v6.227
		c0,1.146,0.929,2.074,2.075,2.074c1.146,0,2.075-0.929,2.075-2.074v-8.301C58.107,23.759,57.178,22.828,56.032,22.828"/>
	<path d="M49.806,29.055H39.431c-1.146,0-2.076,0.929-2.076,2.074c0,1.147,0.93,2.076,2.076,2.076h10.375
		c1.146,0,2.076-0.929,2.076-2.076C51.882,29.983,50.952,29.055,49.806,29.055"/>
	<path d="M33.204,39.43h-8.301c-1.146,0-2.076,0.931-2.076,2.076c0,1.146,0.93,2.074,2.076,2.074h6.226v12.453
		c0,1.146,0.929,2.075,2.075,2.075c1.146,0,2.076-0.929,2.076-2.075V41.506C35.279,40.36,34.35,39.43,33.204,39.43"/>
	<path d="M33.204,33.205h-2.075c-1.146,0-2.075,0.929-2.075,2.074c0,1.147,0.93,2.076,2.075,2.076h2.075
		c1.146,0,2.076-0.929,2.076-2.076C35.28,34.134,34.35,33.205,33.204,33.205"/>
	<path d="M33.204,26.979h-2.075c-1.146,0-2.075,0.931-2.075,2.076c0,1.146,0.93,2.074,2.075,2.074h2.075
		c1.146,0,2.076-0.928,2.076-2.074C35.28,27.909,34.35,26.979,33.204,26.979"/>
	<path d="M8.302,31.129H2.075C0.929,31.129,0,32.06,0,33.205c0,1.146,0.929,2.074,2.075,2.074h6.227
		c1.146,0,2.074-0.928,2.074-2.074C10.376,32.06,9.448,31.129,8.302,31.129"/>
	<path d="M31.129,6.227c-1.146,0-2.075,0.93-2.075,2.074v2.076c0,1.146,0.929,2.075,2.075,2.075c1.146,0,2.075-0.929,2.075-2.075
		V8.301C33.204,7.156,32.274,6.227,31.129,6.227"/>
	<path d="M4.15,24.904H2.075C0.929,24.904,0,25.833,0,26.979c0,1.147,0.929,2.075,2.075,2.075H4.15c1.146,0,2.075-0.928,2.075-2.075
		C6.226,25.833,5.296,24.904,4.15,24.904"/>
</g>
</svg>
