<?xml version="1.0" encoding="utf-8"?>
<!-- Generator: Adobe Illustrator 16.0.0, SVG Export Plug-In . SVG Version: 6.00 Build 0)  -->
<!DOCTYPE svg PUBLIC "-//W3C//DTD SVG 1.1//EN" "http://www.w3.org/Graphics/SVG/1.1/DTD/svg11.dtd">
<svg version="1.1" id="Layer_1" xmlns="http://www.w3.org/2000/svg" xmlns:xlink="http://www.w3.org/1999/xlink" x="0px" y="0px"
	 width="101.26px" height="108.256px" viewBox="0 0 101.26 108.256" enable-background="new 0 0 101.26 108.256"
	 xml:space="preserve">
<g opacity="0.7">
	<g>
		<path fill="#FFBD61" d="M98.536,43.708L55.41,3.459c-2.691-2.512-6.869-2.512-9.561,0L2.724,43.708v43.896h95.813V43.708z"/>
		<path fill="#F9F5F3" d="M36.481,75.212l9.368,8.742c2.691,2.513,6.869,2.513,9.561,0c0,0,14.551-13.579,26.748-24.962V12.085
			c0-1.935-1.568-3.503-3.503-3.503H22.604c-1.935,0-3.503,1.567-3.503,3.503v46.906L36.481,75.212z"/>
		<path fill="#F9EAE0" d="M78.655,8.583h-4.864c1.936,0,3.503,1.568,3.503,3.503v51.446c1.637-1.527,3.271-3.052,4.864-4.539V12.085
			C82.158,10.151,80.59,8.583,78.655,8.583z"/>
		<path fill="#FFCE69" d="M2.724,43.708l33.758,31.505l9.368,8.742c2.691,2.513,6.869,2.513,9.561,0l43.126-40.247
			c0.699,0.641,1.138,1.562,1.138,2.584v53.373c0,3.869-3.137,7.006-7.006,7.006H81.282H19.977H8.592
			c-3.869,0-7.006-3.137-7.006-7.006V46.292C1.586,45.269,2.024,44.348,2.724,43.708L2.724,43.708z"/>
		<path fill="#FFCE69" d="M2.724,43.708l33.758,31.505l9.368,8.742c2.691,2.513,6.869,2.513,9.561,0l43.126-40.247
			c0.699,0.641,1.138,1.562,1.138,2.584v53.373c0,3.869-3.137,7.006-7.006,7.006H81.282H19.977H8.592
			c-3.869,0-7.006-3.137-7.006-7.006V46.292C1.586,45.269,2.024,44.348,2.724,43.708L2.724,43.708z"/>
		<path fill="#FFBD61" d="M98.536,43.708c0,0-1.413,1.317-3.726,3.476v52.48c0,3.869-3.137,7.006-7.007,7.006h4.864
			c3.869,0,7.006-3.137,7.006-7.006V46.292C99.674,45.269,99.235,44.348,98.536,43.708z"/>
		<path fill="#F9F5F3" d="M89.164,99.665c1.936,0,3.504-1.568,3.504-3.503c0-1.936-1.568-3.503-3.504-3.503H75.152
			c-1.936,0-3.504,1.567-3.504,3.503c0,1.935,1.568,3.503,3.504,3.503H89.164z"/>
		<path fill="#F9EAE0" d="M89.165,92.659h-4.864c1.936,0,3.503,1.568,3.503,3.503s-1.567,3.503-3.503,3.503h4.864
			c1.935,0,3.503-1.568,3.503-3.503S91.1,92.659,89.165,92.659z"/>
		<g>
			<g>
				<ellipse fill="#A0C8FF" cx="50.616" cy="53.604" rx="3.503" ry="3.503"/>
				<g>
					<path fill="#A0C8FF" d="M50.63,43.099c-1.935,0-3.503-1.568-3.503-3.503v-3.503c0-3.209,1.896-6.062,4.832-7.267
						c1.4-0.575,2.27-1.981,2.165-3.499c-0.117-1.699-1.539-3.122-3.238-3.238c-0.985-0.067-1.928,0.263-2.646,0.932
						c-0.718,0.67-1.113,1.58-1.113,2.563c0,1.935-1.568,3.503-3.504,3.503c-1.935,0-3.503-1.568-3.503-3.503
						c0-2.902,1.218-5.703,3.34-7.685c2.121-1.979,5.002-3.001,7.908-2.8c5.197,0.358,9.388,4.549,9.746,9.746
						c0.313,4.534-2.298,8.739-6.494,10.462c-0.291,0.12-0.487,0.436-0.487,0.786v3.503C54.133,41.531,52.564,43.099,50.63,43.099z"
						/>
				</g>
			</g>
		</g>
	</g>
	<g>
		<path d="M99.621,42.552c0-0.002-0.002-0.003-0.003-0.004l-0.009-0.007l-0.002-0.003c0,0-0.001,0-0.001-0.002L83.744,27.734v-6.931
			c0-0.877-0.71-1.587-1.586-1.587s-1.586,0.71-1.586,1.587v37.5L54.328,82.795c-2.074,1.937-5.323,1.937-7.396,0L20.687,58.302
			V12.085c0-1.057,0.86-1.918,1.918-1.918h56.051c1.057,0,1.917,0.861,1.917,1.918v10.832c0,0.875,0.71,1.585,1.586,1.585
			s1.586-0.71,1.586-1.585V12.085c0-2.807-2.283-5.089-5.089-5.089H61.523L56.492,2.3c-3.287-3.067-8.438-3.067-11.725,0
			l-5.031,4.696H22.604c-2.807,0-5.089,2.283-5.089,5.089v15.648L1.654,42.537l-0.001,0.002c-0.001,0-0.003,0.002-0.004,0.003
			l-0.008,0.007c-0.001,0.001-0.002,0.002-0.003,0.003C0.597,43.513,0,44.875,0,46.292v53.372c0,4.737,3.854,8.592,8.592,8.592
			h15.796c0.876,0,1.585-0.71,1.585-1.586s-0.709-1.586-1.585-1.586H8.592c-2.989,0-5.42-2.432-5.42-5.42v-53.37l41.596,38.819
			c1.644,1.535,3.753,2.302,5.862,2.302s4.219-0.767,5.862-2.301l41.596-38.82v53.37c0,2.989-2.432,5.42-5.42,5.42H22.273
			c-0.876,0-1.586,0.71-1.586,1.586s0.71,1.586,1.586,1.586h70.395c4.737,0,8.592-3.854,8.592-8.592V46.292
			C101.26,44.875,100.663,43.513,99.621,42.552L99.621,42.552z M46.932,4.62c2.073-1.936,5.322-1.936,7.396,0l2.547,2.377h-12.49
			L46.932,4.62z M17.516,55.342L5.049,43.708l12.467-11.636V55.342L17.516,55.342z M83.744,32.073l12.467,11.636L83.744,55.343
			V32.073z"/>
		<path d="M89.165,101.251c2.806,0,5.089-2.283,5.089-5.09s-2.283-5.089-5.089-5.089H75.152c-2.807,0-5.09,2.282-5.09,5.089
			s2.283,5.09,5.09,5.09H89.165z M73.234,96.162c0-1.057,0.86-1.917,1.918-1.917h14.013c1.057,0,1.917,0.86,1.917,1.917
			s-0.86,1.917-1.917,1.917H75.152C74.095,98.079,73.234,97.218,73.234,96.162z"/>
		<path d="M50.63,48.519c-2.807,0-5.089,2.283-5.089,5.089c0,2.807,2.282,5.09,5.089,5.09c2.806,0,5.089-2.283,5.089-5.09
			C55.719,50.802,53.436,48.519,50.63,48.519z M50.63,55.526c-1.058,0-1.917-0.86-1.917-1.917s0.859-1.917,1.917-1.917
			c1.057,0,1.917,0.86,1.917,1.917S51.687,55.526,50.63,55.526z"/>
		<path d="M55.719,36.558c4.538-2.103,7.324-6.785,6.978-11.821c-0.413-5.983-5.236-10.807-11.219-11.22
			c-3.341-0.231-6.657,0.943-9.1,3.223s-3.843,5.503-3.843,8.844c0,2.807,2.282,5.089,5.088,5.089c2.807,0,5.089-2.282,5.089-5.089
			c0-0.545,0.211-1.03,0.61-1.402c0.393-0.365,0.91-0.547,1.454-0.51c0.911,0.063,1.702,0.855,1.766,1.766
			c0.058,0.835-0.419,1.607-1.186,1.923c-3.533,1.45-5.815,4.879-5.815,8.733v3.503c0,2.806,2.283,5.089,5.089,5.089
			c2.807,0,5.089-2.283,5.089-5.089V36.558L55.719,36.558z M54.018,33.841c-0.894,0.367-1.471,1.251-1.471,2.252v3.503
			c0,1.057-0.859,1.917-1.917,1.917c-1.057,0-1.917-0.86-1.917-1.917v-3.503c0-2.563,1.511-4.84,3.849-5.8
			c2.033-0.834,3.297-2.874,3.146-5.075c-0.171-2.472-2.24-4.541-4.714-4.712c-0.121-0.008-0.241-0.012-0.36-0.012
			c-1.299,0-2.521,0.479-3.474,1.367c-1.044,0.974-1.618,2.295-1.618,3.722c0,1.057-0.86,1.917-1.917,1.917
			c-1.058,0-1.917-0.86-1.917-1.917c0-2.464,1.033-4.842,2.836-6.524c1.801-1.682,4.25-2.548,6.717-2.377
			c4.411,0.304,7.969,3.86,8.272,8.272C59.798,28.806,57.582,32.377,54.018,33.841L54.018,33.841z"/>
	</g>
</g>
</svg>
