<?xml version="1.0" encoding="utf-8"?>
<!-- Generator: Adobe Illustrator 16.0.0, SVG Export Plug-In . SVG Version: 6.00 Build 0)  -->
<!DOCTYPE svg PUBLIC "-//W3C//DTD SVG 1.1//EN" "http://www.w3.org/Graphics/SVG/1.1/DTD/svg11.dtd">
<svg version="1.1" id="Layer_1" xmlns="http://www.w3.org/2000/svg" xmlns:xlink="http://www.w3.org/1999/xlink" x="0px" y="0px"
	 width="18.387px" height="18.387px" viewBox="0 0 18.387 18.387" enable-background="new 0 0 18.387 18.387" xml:space="preserve">
<g>
	<path fill="#E89C31" d="M17.812,7.662h-4.979c-0.317,0-0.574-0.258-0.574-0.576c0-0.316,0.257-0.574,0.574-0.574h4.405V2.107
		c0-0.318,0.258-0.574,0.574-0.574c0.317,0,0.575,0.256,0.575,0.574v4.979C18.387,7.404,18.129,7.662,17.812,7.662z"/>
	<path fill="#E89C31" d="M9.193,18.387C4.124,18.387,0,14.264,0,9.193C0,4.125,4.124,0,9.193,0c4.323,0,8.182,2.922,9.177,6.949
		c0.076,0.307-0.111,0.619-0.42,0.695s-0.62-0.111-0.696-0.42c-0.869-3.52-4.26-6.076-8.061-6.076c-4.437,0-8.045,3.609-8.045,8.045
		s3.608,8.045,8.045,8.045c2.147,0,4.167-0.838,5.687-2.357c0.225-0.225,0.589-0.225,0.813,0c0.224,0.225,0.224,0.588,0,0.813
		C13.956,17.43,11.647,18.387,9.193,18.387z"/>
</g>
</svg>
